<svg xmlns="http://www.w3.org/2000/svg" width="16" height="16" viewBox="0 0 16 16">
  <path id="mood_FILL0_wght400_GRAD0_opsz48" d="M14.92,10.94a1.059,1.059,0,1,0-.77-.31A1.045,1.045,0,0,0,14.92,10.94Zm-5.84,0a1.059,1.059,0,1,0-.77-.31A1.045,1.045,0,0,0,9.08,10.94ZM12,16.38a4.421,4.421,0,0,0,2.43-.71,4.072,4.072,0,0,0,1.61-1.93H7.96a4.208,4.208,0,0,0,1.62,1.93A4.372,4.372,0,0,0,12,16.38ZM12,20a7.741,7.741,0,0,1-3.1-.63A8.06,8.06,0,0,1,4.63,15.1a7.991,7.991,0,0,1,0-6.22A8,8,0,0,1,6.35,6.34,8.2,8.2,0,0,1,8.9,4.63a7.991,7.991,0,0,1,6.22,0,7.987,7.987,0,0,1,4.25,4.25,7.991,7.991,0,0,1,0,6.22,8.2,8.2,0,0,1-1.71,2.55,8,8,0,0,1-2.54,1.72A7.79,7.79,0,0,1,12,20ZM12,12Zm0,6.8a6.543,6.543,0,0,0,4.82-1.99A6.57,6.57,0,0,0,18.8,12a6.56,6.56,0,0,0-1.98-4.82A6.56,6.56,0,0,0,12,5.2,6.57,6.57,0,0,0,7.19,7.18,6.543,6.543,0,0,0,5.2,12a6.553,6.553,0,0,0,1.99,4.81A6.553,6.553,0,0,0,12,18.8Z" transform="translate(-4 -4)" fill="#155281"/>
</svg>
