<svg xmlns="http://www.w3.org/2000/svg" width="8.8" height="16" viewBox="0 0 8.8 16">
  <path id="attach_file_FILL0_wght400_GRAD0_opsz48" d="M16.4,20a4.308,4.308,0,0,1-3.11-1.25A4.108,4.108,0,0,1,12,15.68V7.08a2.953,2.953,0,0,1,.91-2.18,3.127,3.127,0,0,1,4.39,0,2.993,2.993,0,0,1,.9,2.2v7.88a1.773,1.773,0,0,1-.52,1.29,1.723,1.723,0,0,1-1.28.53,1.665,1.665,0,0,1-1.28-.57,1.936,1.936,0,0,1-.52-1.35V7.04h.8v7.9a1.058,1.058,0,0,0,.29.75.935.935,0,0,0,.71.31.949.949,0,0,0,.71-.3,1,1,0,0,0,.29-.72V7.08a2.186,2.186,0,0,0-.67-1.62,2.343,2.343,0,0,0-3.26,0,2.186,2.186,0,0,0-.67,1.62v8.64a3.281,3.281,0,0,0,1.06,2.47,3.7,3.7,0,0,0,5.09-.01A3.351,3.351,0,0,0,20,15.68V7.04h.8v8.62a4.141,4.141,0,0,1-1.29,3.08A4.29,4.29,0,0,1,16.4,20Z" transform="translate(-12 -4)" fill="#155281"/>
</svg>
