<svg xmlns="http://www.w3.org/2000/svg" width="26" height="26" viewBox="0 0 26 26">
  <path id="search_FILL0_wght400_GRAD0_opsz48" d="M30.411,31.95l-9.5-9.5a7.958,7.958,0,0,1-2.528,1.462,8.937,8.937,0,0,1-3.069.524,8.991,8.991,0,0,1-6.608-2.708A8.907,8.907,0,0,1,6,15.194,8.907,8.907,0,0,1,8.708,8.658,8.949,8.949,0,0,1,15.281,5.95,8.847,8.847,0,0,1,21.8,8.658a8.937,8.937,0,0,1,2.69,6.536,9.008,9.008,0,0,1-.506,3A9.166,9.166,0,0,1,22.467,20.9L32,30.361ZM15.281,22.272A6.758,6.758,0,0,0,20.264,20.2a6.847,6.847,0,0,0,2.058-5,6.847,6.847,0,0,0-2.058-5,6.758,6.758,0,0,0-4.983-2.076,6.859,6.859,0,0,0-5.038,2.076,6.817,6.817,0,0,0-2.076,5,6.817,6.817,0,0,0,2.076,5,6.859,6.859,0,0,0,5.038,2.076Z" transform="translate(-6 -5.95)" fill="#ca441c"/>
</svg>
